<?xml version="1.0" encoding="UTF-8" standalone="no"?><!DOCTYPE svg PUBLIC "-//W3C//DTD SVG 1.1//EN" "http://www.w3.org/Graphics/SVG/1.1/DTD/svg11.dtd"><!-- Generated by graphviz version 2.40.1 (20161225.0304)
 --><!-- Title: BST Pages: 1 --><svg xmlns="http://www.w3.org/2000/svg" xmlns:xlink="http://www.w3.org/1999/xlink" width="206pt" height="260pt" viewBox="0.00 0.00 206.00 260.00">
<g id="graph0" class="graph" transform="scale(1 1) rotate(0) translate(4 256)">
<title>BST</title>
<polygon fill="#ffffff" stroke="transparent" points="-4,4 -4,-256 202,-256 202,4 -4,4"/>
<!-- 6 -->
<g id="node1" class="node">
<title>6</title>
<ellipse fill="#7fffd4" stroke="#000000" cx="99" cy="-234" rx="18" ry="18"/>
<text text-anchor="middle" x="99" y="-229.8" font-family="Times,serif" font-size="14.00" fill="#000000">6</text>
</g>
<!-- 2 -->
<g id="node2" class="node">
<title>2</title>
<ellipse fill="#ffffff" stroke="#000000" cx="72" cy="-162" rx="18" ry="18"/>
<text text-anchor="middle" x="72" y="-157.8" font-family="Times,serif" font-size="14.00" fill="#000000">2</text>
</g>
<!-- 6&#45;&gt;2 -->
<g id="edge1" class="edge">
<title>6-&gt;2</title>
<path fill="none" stroke="#ff0000" d="M92.6014,-216.937C89.407,-208.4186 85.471,-197.9227 81.8982,-188.3952"/>
<polygon fill="#ff0000" stroke="#ff0000" points="85.1411,-187.0749 78.3527,-178.9405 78.5868,-189.5328 85.1411,-187.0749"/>
</g>
<!-- 8 -->
<g id="node3" class="node">
<title>8</title>
<ellipse fill="#ffffff" stroke="#000000" cx="126" cy="-162" rx="18" ry="18"/>
<text text-anchor="middle" x="126" y="-157.8" font-family="Times,serif" font-size="14.00" fill="#000000">8</text>
</g>
<!-- 6&#45;&gt;8 -->
<g id="edge2" class="edge">
<title>6-&gt;8</title>
<path fill="none" stroke="#ff0000" d="M105.3986,-216.937C108.593,-208.4186 112.529,-197.9227 116.1018,-188.3952"/>
<polygon fill="#ff0000" stroke="#ff0000" points="119.4132,-189.5328 119.6473,-178.9405 112.8589,-187.0749 119.4132,-189.5328"/>
</g>
<!-- 0 -->
<g id="node4" class="node">
<title>0</title>
<ellipse fill="#ffffff" stroke="#000000" cx="18" cy="-90" rx="18" ry="18"/>
<text text-anchor="middle" x="18" y="-85.8" font-family="Times,serif" font-size="14.00" fill="#000000">0</text>
</g>
<!-- 2&#45;&gt;0 -->
<g id="edge3" class="edge">
<title>2-&gt;0</title>
<path fill="none" stroke="#000000" d="M61.0723,-147.4297C53.6066,-137.4754 43.5632,-124.0842 35.0526,-112.7368"/>
<polygon fill="#000000" stroke="#000000" points="37.7115,-110.4486 28.9115,-104.5486 32.1115,-114.6486 37.7115,-110.4486"/>
</g>
<!-- 4 -->
<g id="node5" class="node">
<title>4</title>
<ellipse fill="#ffffff" stroke="#000000" cx="72" cy="-90" rx="18" ry="18"/>
<text text-anchor="middle" x="72" y="-85.8" font-family="Times,serif" font-size="14.00" fill="#000000">4</text>
</g>
<!-- 2&#45;&gt;4 -->
<g id="edge4" class="edge">
<title>2-&gt;4</title>
<path fill="none" stroke="#000000" d="M72,-143.8314C72,-136.131 72,-126.9743 72,-118.4166"/>
<polygon fill="#000000" stroke="#000000" points="75.5001,-118.4132 72,-108.4133 68.5001,-118.4133 75.5001,-118.4132"/>
</g>
<!-- 7 -->
<g id="node6" class="node">
<title>7</title>
<ellipse fill="#ffffff" stroke="#000000" cx="126" cy="-90" rx="18" ry="18"/>
<text text-anchor="middle" x="126" y="-85.8" font-family="Times,serif" font-size="14.00" fill="#000000">7</text>
</g>
<!-- 8&#45;&gt;7 -->
<g id="edge7" class="edge">
<title>8-&gt;7</title>
<path fill="none" stroke="#000000" d="M126,-143.8314C126,-136.131 126,-126.9743 126,-118.4166"/>
<polygon fill="#000000" stroke="#000000" points="129.5001,-118.4132 126,-108.4133 122.5001,-118.4133 129.5001,-118.4132"/>
</g>
<!-- 9 -->
<g id="node7" class="node">
<title>9</title>
<ellipse fill="#ffffff" stroke="#000000" cx="180" cy="-90" rx="18" ry="18"/>
<text text-anchor="middle" x="180" y="-85.8" font-family="Times,serif" font-size="14.00" fill="#000000">9</text>
</g>
<!-- 8&#45;&gt;9 -->
<g id="edge8" class="edge">
<title>8-&gt;9</title>
<path fill="none" stroke="#000000" d="M136.9277,-147.4297C144.3934,-137.4754 154.4368,-124.0842 162.9474,-112.7368"/>
<polygon fill="#000000" stroke="#000000" points="165.8885,-114.6486 169.0885,-104.5486 160.2885,-110.4486 165.8885,-114.6486"/>
</g>
<!-- 3 -->
<g id="node8" class="node">
<title>3</title>
<ellipse fill="#ffffff" stroke="#000000" cx="45" cy="-18" rx="18" ry="18"/>
<text text-anchor="middle" x="45" y="-13.8" font-family="Times,serif" font-size="14.00" fill="#000000">3</text>
</g>
<!-- 4&#45;&gt;3 -->
<g id="edge5" class="edge">
<title>4-&gt;3</title>
<path fill="none" stroke="#000000" d="M65.6014,-72.937C62.407,-64.4186 58.471,-53.9227 54.8982,-44.3952"/>
<polygon fill="#000000" stroke="#000000" points="58.1411,-43.0749 51.3527,-34.9405 51.5868,-45.5328 58.1411,-43.0749"/>
</g>
<!-- 5 -->
<g id="node9" class="node">
<title>5</title>
<ellipse fill="#ffffff" stroke="#000000" cx="99" cy="-18" rx="18" ry="18"/>
<text text-anchor="middle" x="99" y="-13.8" font-family="Times,serif" font-size="14.00" fill="#000000">5</text>
</g>
<!-- 4&#45;&gt;5 -->
<g id="edge6" class="edge">
<title>4-&gt;5</title>
<path fill="none" stroke="#000000" d="M78.3986,-72.937C81.593,-64.4186 85.529,-53.9227 89.1018,-44.3952"/>
<polygon fill="#000000" stroke="#000000" points="92.4132,-45.5328 92.6473,-34.9405 85.8589,-43.0749 92.4132,-45.5328"/>
</g>
</g>
</svg>