<?xml version="1.0" encoding="UTF-8" standalone="no"?><!DOCTYPE svg PUBLIC "-//W3C//DTD SVG 1.1//EN" "http://www.w3.org/Graphics/SVG/1.1/DTD/svg11.dtd"><!-- Generated by graphviz version 2.40.1 (20161225.0304)
 --><!-- Title: BST Pages: 1 --><svg xmlns="http://www.w3.org/2000/svg" xmlns:xlink="http://www.w3.org/1999/xlink" width="206pt" height="271pt" viewBox="0.00 0.00 206.00 270.77">
<g id="graph0" class="graph" transform="scale(1 1) rotate(0) translate(4 266.7738)">
<title>BST</title>
<polygon fill="#ffffff" stroke="transparent" points="-4,4 -4,-266.7738 202,-266.7738 202,4 -4,4"/>
<!-- 10 -->
<g id="node1" class="node">
<title>10</title>
<ellipse fill="#ffffff" stroke="#000000" cx="127" cy="-242.0804" rx="20.8887" ry="20.8887"/>
<text text-anchor="middle" x="127" y="-237.8804" font-family="Times,serif" font-size="14.00" fill="#000000">10</text>
</g>
<!-- 5 -->
<g id="node2" class="node">
<title>5</title>
<ellipse fill="#7fffd4" stroke="#000000" cx="99" cy="-164.6935" rx="18" ry="18"/>
<text text-anchor="middle" x="99" y="-160.4935" font-family="Times,serif" font-size="14.00" fill="#000000">5</text>
</g>
<!-- 10&#45;&gt;5 -->
<g id="edge1" class="edge">
<title>10-&gt;5</title>
<path fill="none" stroke="#ff0000" d="M119.9344,-222.5524C116.5323,-213.1494 112.3992,-201.7264 108.7071,-191.5221"/>
<polygon fill="#ff0000" stroke="#ff0000" points="111.899,-190.0567 105.2054,-181.8441 105.3166,-192.4384 111.899,-190.0567"/>
</g>
<!-- 15 -->
<g id="node3" class="node">
<title>15</title>
<ellipse fill="#ffffff" stroke="#000000" cx="156" cy="-164.6935" rx="20.8887" ry="20.8887"/>
<text text-anchor="middle" x="156" y="-160.4935" font-family="Times,serif" font-size="14.00" fill="#000000">15</text>
</g>
<!-- 10&#45;&gt;15 -->
<g id="edge2" class="edge">
<title>10-&gt;15</title>
<path fill="none" stroke="#000000" d="M134.3179,-222.5524C137.5807,-213.8456 141.4926,-203.4067 145.0899,-193.8072"/>
<polygon fill="#000000" stroke="#000000" points="148.4527,-194.8075 148.6844,-184.2152 141.8978,-192.3511 148.4527,-194.8075"/>
</g>
<!-- 2 -->
<g id="node4" class="node">
<title>2</title>
<ellipse fill="#ffffff" stroke="#000000" cx="72" cy="-90" rx="18" ry="18"/>
<text text-anchor="middle" x="72" y="-85.8" font-family="Times,serif" font-size="14.00" fill="#000000">2</text>
</g>
<!-- 5&#45;&gt;2 -->
<g id="edge3" class="edge">
<title>5-&gt;2</title>
<path fill="none" stroke="#ff0000" d="M92.8733,-147.7444C89.5483,-138.5461 85.3625,-126.9665 81.6138,-116.5959"/>
<polygon fill="#ff0000" stroke="#ff0000" points="84.887,-115.3552 78.1959,-107.1406 78.3039,-117.7349 84.887,-115.3552"/>
</g>
<!-- 7 -->
<g id="node5" class="node">
<title>7</title>
<ellipse fill="#ffffff" stroke="#000000" cx="126" cy="-90" rx="18" ry="18"/>
<text text-anchor="middle" x="126" y="-85.8" font-family="Times,serif" font-size="14.00" fill="#000000">7</text>
</g>
<!-- 5&#45;&gt;7 -->
<g id="edge4" class="edge">
<title>5-&gt;7</title>
<path fill="none" stroke="#000000" d="M105.1267,-147.7444C108.4517,-138.5461 112.6375,-126.9665 116.3862,-116.5959"/>
<polygon fill="#000000" stroke="#000000" points="119.6961,-117.7349 119.8041,-107.1406 113.113,-115.3552 119.6961,-117.7349"/>
</g>
<!-- 1 -->
<g id="node6" class="node">
<title>1</title>
<ellipse fill="#ffffff" stroke="#000000" cx="18" cy="-18" rx="18" ry="18"/>
<text text-anchor="middle" x="18" y="-13.8" font-family="Times,serif" font-size="14.00" fill="#000000">1</text>
</g>
<!-- 2&#45;&gt;1 -->
<g id="edge5" class="edge">
<title>2-&gt;1</title>
<path fill="none" stroke="#000000" d="M61.0723,-75.4297C53.6066,-65.4754 43.5632,-52.0842 35.0526,-40.7368"/>
<polygon fill="#000000" stroke="#000000" points="37.7115,-38.4486 28.9115,-32.5486 32.1115,-42.6486 37.7115,-38.4486"/>
</g>
<!-- 4 -->
<g id="node7" class="node">
<title>4</title>
<ellipse fill="#ffffff" stroke="#000000" cx="72" cy="-18" rx="18" ry="18"/>
<text text-anchor="middle" x="72" y="-13.8" font-family="Times,serif" font-size="14.00" fill="#000000">4</text>
</g>
<!-- 2&#45;&gt;4 -->
<g id="edge6" class="edge">
<title>2-&gt;4</title>
<path fill="none" stroke="#ff0000" d="M72,-71.8314C72,-64.131 72,-54.9743 72,-46.4166"/>
<polygon fill="#ff0000" stroke="#ff0000" points="75.5001,-46.4132 72,-36.4133 68.5001,-46.4133 75.5001,-46.4132"/>
</g>
<!-- 6 -->
<g id="node8" class="node">
<title>6</title>
<ellipse fill="#ffffff" stroke="#000000" cx="126" cy="-18" rx="18" ry="18"/>
<text text-anchor="middle" x="126" y="-13.8" font-family="Times,serif" font-size="14.00" fill="#000000">6</text>
</g>
<!-- 7&#45;&gt;6 -->
<g id="edge7" class="edge">
<title>7-&gt;6</title>
<path fill="none" stroke="#000000" d="M126,-71.8314C126,-64.131 126,-54.9743 126,-46.4166"/>
<polygon fill="#000000" stroke="#000000" points="129.5001,-46.4132 126,-36.4133 122.5001,-46.4133 129.5001,-46.4132"/>
</g>
<!-- 8 -->
<g id="node9" class="node">
<title>8</title>
<ellipse fill="#ffffff" stroke="#000000" cx="180" cy="-18" rx="18" ry="18"/>
<text text-anchor="middle" x="180" y="-13.8" font-family="Times,serif" font-size="14.00" fill="#000000">8</text>
</g>
<!-- 7&#45;&gt;8 -->
<g id="edge8" class="edge">
<title>7-&gt;8</title>
<path fill="none" stroke="#000000" d="M136.9277,-75.4297C144.3934,-65.4754 154.4368,-52.0842 162.9474,-40.7368"/>
<polygon fill="#000000" stroke="#000000" points="165.8885,-42.6486 169.0885,-32.5486 160.2885,-38.4486 165.8885,-42.6486"/>
</g>
</g>
</svg>