<?xml version="1.0" encoding="UTF-8" standalone="no"?>
<!DOCTYPE svg PUBLIC "-//W3C//DTD SVG 1.1//EN" "http://www.w3.org/Graphics/SVG/1.1/DTD/svg11.dtd">
<!-- Generated by graphviz version 2.40.1 (20161225.0304)
 -->
<!-- Title: BST Pages: 1 -->
<svg width="255pt" height="282pt" viewBox="0.00 0.00 255.39 281.55" xmlns="http://www.w3.org/2000/svg" xmlns:xlink="http://www.w3.org/1999/xlink">
<g id="graph0" class="graph" transform="scale(1 1) rotate(0) translate(4 277.5476)">
<title>BST</title>
<polygon fill="#ffffff" stroke="transparent" points="-4,4 -4,-277.5476 251.3869,-277.5476 251.3869,4 -4,4"/>
<!-- 50 -->
<g id="node1" class="node">
<title>50</title>
<ellipse fill="#ffff00" stroke="#000000" cx="137.6935" cy="-252.8542" rx="20.8887" ry="20.8887"/>
<text text-anchor="middle" x="137.6935" y="-248.6542" font-family="Times,serif" font-size="14.00" fill="#000000">50</text>
</g>
<!-- 30 -->
<g id="node2" class="node">
<title>30</title>
<ellipse fill="none" stroke="#000000" cx="108.6935" cy="-175.4673" rx="20.8887" ry="20.8887"/>
<text text-anchor="middle" x="108.6935" y="-171.2673" font-family="Times,serif" font-size="14.00" fill="#000000">30</text>
</g>
<!-- 50&#45;&gt;30 -->
<g id="edge1" class="edge">
<title>50-&gt;30</title>
<path fill="none" stroke="#000000" d="M130.3755,-233.3262C127.1127,-224.6194 123.2009,-214.1805 119.6035,-204.581"/>
<polygon fill="#000000" stroke="#000000" points="122.7956,-203.1249 116.009,-194.989 116.2408,-205.5813 122.7956,-203.1249"/>
</g>
<!-- 70 -->
<g id="node3" class="node">
<title>70</title>
<ellipse fill="none" stroke="#000000" cx="167.6935" cy="-175.4673" rx="20.8887" ry="20.8887"/>
<text text-anchor="middle" x="167.6935" y="-171.2673" font-family="Times,serif" font-size="14.00" fill="#000000">70</text>
</g>
<!-- 50&#45;&gt;70 -->
<g id="edge2" class="edge">
<title>50-&gt;70</title>
<path fill="none" stroke="#ff0000" d="M145.2637,-233.3262C148.639,-224.6194 152.6858,-214.1805 156.4072,-204.581"/>
<polygon fill="#ff0000" stroke="#ff0000" points="159.7744,-205.578 160.1256,-194.989 153.2476,-203.0478 159.7744,-205.578"/>
</g>
<!-- 20 -->
<g id="node4" class="node">
<title>20</title>
<ellipse fill="none" stroke="#000000" cx="49.6935" cy="-98.0804" rx="20.8887" ry="20.8887"/>
<text text-anchor="middle" x="49.6935" y="-93.8804" font-family="Times,serif" font-size="14.00" fill="#000000">20</text>
</g>
<!-- 30&#45;&gt;20 -->
<g id="edge3" class="edge">
<title>30-&gt;20</title>
<path fill="none" stroke="#000000" d="M95.8913,-158.6755C87.8734,-148.1588 77.4016,-134.4235 68.4555,-122.6894"/>
<polygon fill="#000000" stroke="#000000" points="71.1142,-120.4039 62.2679,-114.5735 65.5475,-124.648 71.1142,-120.4039"/>
</g>
<!-- 40 -->
<g id="node5" class="node">
<title>40</title>
<ellipse fill="none" stroke="#000000" cx="108.6935" cy="-98.0804" rx="20.8887" ry="20.8887"/>
<text text-anchor="middle" x="108.6935" y="-93.8804" font-family="Times,serif" font-size="14.00" fill="#000000">40</text>
</g>
<!-- 30&#45;&gt;40 -->
<g id="edge4" class="edge">
<title>30-&gt;40</title>
<path fill="none" stroke="#000000" d="M108.6935,-154.729C108.6935,-146.8352 108.6935,-137.6605 108.6935,-129.023"/>
<polygon fill="#000000" stroke="#000000" points="112.1936,-128.8758 108.6935,-118.8759 105.1936,-128.8759 112.1936,-128.8758"/>
</g>
<!-- 60 -->
<g id="node6" class="node">
<title>60</title>
<ellipse fill="#7fffd4" stroke="#000000" cx="167.6935" cy="-98.0804" rx="20.8887" ry="20.8887"/>
<text text-anchor="middle" x="167.6935" y="-93.8804" font-family="Times,serif" font-size="14.00" fill="#000000">60</text>
</g>
<!-- 70&#45;&gt;60 -->
<g id="edge7" class="edge">
<title>70-&gt;60</title>
<path fill="none" stroke="#ff0000" d="M167.6935,-154.729C167.6935,-146.8352 167.6935,-137.6605 167.6935,-129.023"/>
<polygon fill="#ff0000" stroke="#ff0000" points="171.1936,-128.8758 167.6935,-118.8759 164.1936,-128.8759 171.1936,-128.8758"/>
</g>
<!-- 80 -->
<g id="node7" class="node">
<title>80</title>
<ellipse fill="none" stroke="#000000" cx="226.6935" cy="-98.0804" rx="20.8887" ry="20.8887"/>
<text text-anchor="middle" x="226.6935" y="-93.8804" font-family="Times,serif" font-size="14.00" fill="#000000">80</text>
</g>
<!-- 70&#45;&gt;80 -->
<g id="edge8" class="edge">
<title>70-&gt;80</title>
<path fill="none" stroke="#000000" d="M180.4956,-158.6755C188.5135,-148.1588 198.9853,-134.4235 207.9314,-122.6894"/>
<polygon fill="#000000" stroke="#000000" points="210.8394,-124.648 214.119,-114.5735 205.2727,-120.4039 210.8394,-124.648"/>
</g>
<!-- 10 -->
<g id="node8" class="node">
<title>10</title>
<ellipse fill="none" stroke="#000000" cx="20.6935" cy="-20.6935" rx="20.8887" ry="20.8887"/>
<text text-anchor="middle" x="20.6935" y="-16.4935" font-family="Times,serif" font-size="14.00" fill="#000000">10</text>
</g>
<!-- 20&#45;&gt;10 -->
<g id="edge5" class="edge">
<title>20-&gt;10</title>
<path fill="none" stroke="#000000" d="M42.3755,-78.5524C39.1127,-69.8456 35.2009,-59.4067 31.6035,-49.8072"/>
<polygon fill="#000000" stroke="#000000" points="34.7956,-48.3511 28.009,-40.2152 28.2408,-50.8075 34.7956,-48.3511"/>
</g>
<!-- 25 -->
<g id="node9" class="node">
<title>25</title>
<ellipse fill="none" stroke="#000000" cx="79.6935" cy="-20.6935" rx="20.8887" ry="20.8887"/>
<text text-anchor="middle" x="79.6935" y="-16.4935" font-family="Times,serif" font-size="14.00" fill="#000000">25</text>
</g>
<!-- 20&#45;&gt;25 -->
<g id="edge6" class="edge">
<title>20-&gt;25</title>
<path fill="none" stroke="#000000" d="M57.2637,-78.5524C60.639,-69.8456 64.6858,-59.4067 68.4072,-49.8072"/>
<polygon fill="#000000" stroke="#000000" points="71.7744,-50.8042 72.1256,-40.2152 65.2476,-48.274 71.7744,-50.8042"/>
</g>
</g>
</svg>