<?xml version="1.0" encoding="UTF-8" standalone="no"?>
<!DOCTYPE svg PUBLIC "-//W3C//DTD SVG 1.1//EN" "http://www.w3.org/Graphics/SVG/1.1/DTD/svg11.dtd">
<!-- Generated by graphviz version 2.40.1 (20161225.0304)
 -->
<!-- Title: BST Pages: 1 -->
<svg width="226pt" height="282pt" viewBox="0.00 0.00 226.39 281.55" xmlns="http://www.w3.org/2000/svg" xmlns:xlink="http://www.w3.org/1999/xlink">
<g id="graph0" class="graph" transform="scale(1 1) rotate(0) translate(4 277.5476)">
<title>BST</title>
<polygon fill="#ffffff" stroke="transparent" points="-4,4 -4,-277.5476 222.3869,-277.5476 222.3869,4 -4,4"/>
<!-- 50 -->
<g id="node1" class="node">
<title>50</title>
<ellipse fill="none" stroke="#000000" cx="108.6935" cy="-252.8542" rx="20.8887" ry="20.8887"/>
<text text-anchor="middle" x="108.6935" y="-248.6542" font-family="Times,serif" font-size="14.00" fill="#000000">50</text>
</g>
<!-- 30 -->
<g id="node2" class="node">
<title>30</title>
<ellipse fill="none" stroke="#000000" cx="79.6935" cy="-175.4673" rx="20.8887" ry="20.8887"/>
<text text-anchor="middle" x="79.6935" y="-171.2673" font-family="Times,serif" font-size="14.00" fill="#000000">30</text>
</g>
<!-- 50&#45;&gt;30 -->
<g id="edge1" class="edge">
<title>50-&gt;30</title>
<path fill="none" stroke="#ff0000" d="M101.3755,-233.3262C98.1127,-224.6194 94.2009,-214.1805 90.6035,-204.581"/>
<polygon fill="#ff0000" stroke="#ff0000" points="93.7956,-203.1249 87.009,-194.989 87.2408,-205.5813 93.7956,-203.1249"/>
</g>
<!-- 70 -->
<g id="node3" class="node">
<title>70</title>
<ellipse fill="none" stroke="#000000" cx="138.6935" cy="-175.4673" rx="20.8887" ry="20.8887"/>
<text text-anchor="middle" x="138.6935" y="-171.2673" font-family="Times,serif" font-size="14.00" fill="#000000">70</text>
</g>
<!-- 50&#45;&gt;70 -->
<g id="edge5" class="edge">
<title>50-&gt;70</title>
<path fill="none" stroke="#000000" d="M116.2637,-233.3262C119.639,-224.6194 123.6858,-214.1805 127.4072,-204.581"/>
<polygon fill="#000000" stroke="#000000" points="130.7744,-205.578 131.1256,-194.989 124.2476,-203.0478 130.7744,-205.578"/>
</g>
<!-- 20 -->
<g id="node4" class="node">
<title>20</title>
<ellipse fill="#ffff00" stroke="#000000" cx="20.6935" cy="-98.0804" rx="20.8887" ry="20.8887"/>
<text text-anchor="middle" x="20.6935" y="-93.8804" font-family="Times,serif" font-size="14.00" fill="#000000">20</text>
</g>
<!-- 30&#45;&gt;20 -->
<g id="edge2" class="edge">
<title>30-&gt;20</title>
<path fill="none" stroke="#ff0000" d="M66.8913,-158.6755C58.8734,-148.1588 48.4016,-134.4235 39.4555,-122.6894"/>
<polygon fill="#ff0000" stroke="#ff0000" points="42.1142,-120.4039 33.2679,-114.5735 36.5475,-124.648 42.1142,-120.4039"/>
</g>
<!-- 40 -->
<g id="node5" class="node">
<title>40</title>
<ellipse fill="none" stroke="#000000" cx="79.6935" cy="-98.0804" rx="20.8887" ry="20.8887"/>
<text text-anchor="middle" x="79.6935" y="-93.8804" font-family="Times,serif" font-size="14.00" fill="#000000">40</text>
</g>
<!-- 30&#45;&gt;40 -->
<g id="edge4" class="edge">
<title>30-&gt;40</title>
<path fill="none" stroke="#000000" d="M79.6935,-154.729C79.6935,-146.8352 79.6935,-137.6605 79.6935,-129.023"/>
<polygon fill="#000000" stroke="#000000" points="83.1936,-128.8758 79.6935,-118.8759 76.1936,-128.8759 83.1936,-128.8758"/>
</g>
<!-- 60 -->
<g id="node6" class="node">
<title>60</title>
<ellipse fill="none" stroke="#000000" cx="138.6935" cy="-98.0804" rx="20.8887" ry="20.8887"/>
<text text-anchor="middle" x="138.6935" y="-93.8804" font-family="Times,serif" font-size="14.00" fill="#000000">60</text>
</g>
<!-- 70&#45;&gt;60 -->
<g id="edge6" class="edge">
<title>70-&gt;60</title>
<path fill="none" stroke="#000000" d="M138.6935,-154.729C138.6935,-146.8352 138.6935,-137.6605 138.6935,-129.023"/>
<polygon fill="#000000" stroke="#000000" points="142.1936,-128.8758 138.6935,-118.8759 135.1936,-128.8759 142.1936,-128.8758"/>
</g>
<!-- 80 -->
<g id="node7" class="node">
<title>80</title>
<ellipse fill="none" stroke="#000000" cx="197.6935" cy="-98.0804" rx="20.8887" ry="20.8887"/>
<text text-anchor="middle" x="197.6935" y="-93.8804" font-family="Times,serif" font-size="14.00" fill="#000000">80</text>
</g>
<!-- 70&#45;&gt;80 -->
<g id="edge7" class="edge">
<title>70-&gt;80</title>
<path fill="none" stroke="#000000" d="M151.4956,-158.6755C159.5135,-148.1588 169.9853,-134.4235 178.9314,-122.6894"/>
<polygon fill="#000000" stroke="#000000" points="181.8394,-124.648 185.119,-114.5735 176.2727,-120.4039 181.8394,-124.648"/>
</g>
<!-- 25 -->
<g id="node8" class="node">
<title>25</title>
<ellipse fill="none" stroke="#000000" cx="20.6935" cy="-20.6935" rx="20.8887" ry="20.8887"/>
<text text-anchor="middle" x="20.6935" y="-16.4935" font-family="Times,serif" font-size="14.00" fill="#000000">25</text>
</g>
<!-- 20&#45;&gt;25 -->
<g id="edge3" class="edge">
<title>20-&gt;25</title>
<path fill="none" stroke="#000000" d="M20.6935,-77.3421C20.6935,-69.4483 20.6935,-60.2736 20.6935,-51.6361"/>
<polygon fill="#000000" stroke="#000000" points="24.1936,-51.4889 20.6935,-41.489 17.1936,-51.489 24.1936,-51.4889"/>
</g>
</g>
</svg>