<?xml version="1.0" encoding="UTF-8" standalone="no"?><!DOCTYPE svg PUBLIC "-//W3C//DTD SVG 1.1//EN" "http://www.w3.org/Graphics/SVG/1.1/DTD/svg11.dtd"><!-- Generated by graphviz version 2.40.1 (20161225.0304)
 --><!-- Title: BST Pages: 1 --><svg xmlns="http://www.w3.org/2000/svg" xmlns:xlink="http://www.w3.org/1999/xlink" width="185pt" height="282pt" viewBox="0.00 0.00 184.69 281.55">
<g id="graph0" class="graph" transform="scale(1 1) rotate(0) translate(4 277.5476)">
<title>BST</title>
<polygon fill="#ffffff" stroke="transparent" points="-4,4 -4,-277.5476 180.6935,-277.5476 180.6935,4 -4,4"/>
<!-- 10 -->
<g id="node1" class="node">
<title>10</title>
<ellipse fill="#7fffd4" stroke="#000000" cx="127" cy="-252.8542" rx="20.8887" ry="20.8887"/>
<text text-anchor="middle" x="127" y="-248.6542" font-family="Times,serif" font-size="14.00" fill="#000000">10</text>
</g>
<!-- 5 -->
<g id="node2" class="node">
<title>5</title>
<ellipse fill="#ffffff" stroke="#000000" cx="99" cy="-175.4673" rx="18" ry="18"/>
<text text-anchor="middle" x="99" y="-171.2673" font-family="Times,serif" font-size="14.00" fill="#000000">5</text>
</g>
<!-- 10&#45;&gt;5 -->
<g id="edge1" class="edge">
<title>10-&gt;5</title>
<path fill="none" stroke="#ff0000" d="M119.9344,-233.3262C116.5323,-223.9233 112.3992,-212.5002 108.7071,-202.2959"/>
<polygon fill="#ff0000" stroke="#ff0000" points="111.899,-200.8305 105.2054,-192.6179 105.3166,-203.2122 111.899,-200.8305"/>
</g>
<!-- 15 -->
<g id="node3" class="node">
<title>15</title>
<ellipse fill="#ffffff" stroke="#000000" cx="156" cy="-175.4673" rx="20.8887" ry="20.8887"/>
<text text-anchor="middle" x="156" y="-171.2673" font-family="Times,serif" font-size="14.00" fill="#000000">15</text>
</g>
<!-- 10&#45;&gt;15 -->
<g id="edge2" class="edge">
<title>10-&gt;15</title>
<path fill="none" stroke="#ff0000" d="M134.3179,-233.3262C137.5807,-224.6194 141.4926,-214.1805 145.0899,-204.581"/>
<polygon fill="#ff0000" stroke="#ff0000" points="148.4527,-205.5813 148.6844,-194.989 141.8978,-203.1249 148.4527,-205.5813"/>
</g>
<!-- 2 -->
<g id="node4" class="node">
<title>2</title>
<ellipse fill="#ffffff" stroke="#000000" cx="45" cy="-98.0804" rx="18" ry="18"/>
<text text-anchor="middle" x="45" y="-93.8804" font-family="Times,serif" font-size="14.00" fill="#000000">2</text>
</g>
<!-- 5&#45;&gt;2 -->
<g id="edge3" class="edge">
<title>5-&gt;2</title>
<path fill="none" stroke="#ff0000" d="M88.5883,-160.5463C80.819,-149.4122 70.0578,-133.9905 61.1721,-121.2564"/>
<polygon fill="#ff0000" stroke="#ff0000" points="63.9726,-119.1535 55.3798,-112.9555 58.232,-123.1592 63.9726,-119.1535"/>
</g>
<!-- 7 -->
<g id="node5" class="node">
<title>7</title>
<ellipse fill="#ffffff" stroke="#000000" cx="99" cy="-98.0804" rx="18" ry="18"/>
<text text-anchor="middle" x="99" y="-93.8804" font-family="Times,serif" font-size="14.00" fill="#000000">7</text>
</g>
<!-- 5&#45;&gt;7 -->
<g id="edge4" class="edge">
<title>5-&gt;7</title>
<path fill="none" stroke="#000000" d="M99,-157.1276C99,-147.9719 99,-136.6908 99,-126.4504"/>
<polygon fill="#000000" stroke="#000000" points="102.5001,-126.2883 99,-116.2883 95.5001,-126.2884 102.5001,-126.2883"/>
</g>
<!-- 17 -->
<g id="node8" class="node">
<title>17</title>
<ellipse fill="#ffffff" stroke="#000000" cx="156" cy="-98.0804" rx="20.8887" ry="20.8887"/>
<text text-anchor="middle" x="156" y="-93.8804" font-family="Times,serif" font-size="14.00" fill="#000000">17</text>
</g>
<!-- 15&#45;&gt;17 -->
<g id="edge7" class="edge">
<title>15-&gt;17</title>
<path fill="none" stroke="#ff0000" d="M156,-154.729C156,-146.8352 156,-137.6605 156,-129.023"/>
<polygon fill="#ff0000" stroke="#ff0000" points="159.5001,-128.8758 156,-118.8759 152.5001,-128.8759 159.5001,-128.8758"/>
</g>
<!-- 1 -->
<g id="node6" class="node">
<title>1</title>
<ellipse fill="#ffffff" stroke="#000000" cx="18" cy="-20.6935" rx="18" ry="18"/>
<text text-anchor="middle" x="18" y="-16.4935" font-family="Times,serif" font-size="14.00" fill="#000000">1</text>
</g>
<!-- 2&#45;&gt;1 -->
<g id="edge5" class="edge">
<title>2-&gt;1</title>
<path fill="none" stroke="#000000" d="M39.0078,-80.9057C35.5821,-71.0871 31.2107,-58.5578 27.3436,-47.4738"/>
<polygon fill="#000000" stroke="#000000" points="30.5744,-46.1089 23.9754,-37.8201 23.9651,-48.4149 30.5744,-46.1089"/>
</g>
<!-- 4 -->
<g id="node7" class="node">
<title>4</title>
<ellipse fill="#ffffff" stroke="#000000" cx="72" cy="-20.6935" rx="18" ry="18"/>
<text text-anchor="middle" x="72" y="-16.4935" font-family="Times,serif" font-size="14.00" fill="#000000">4</text>
</g>
<!-- 2&#45;&gt;4 -->
<g id="edge6" class="edge">
<title>2-&gt;4</title>
<path fill="none" stroke="#000000" d="M50.9922,-80.9057C54.4179,-71.0871 58.7893,-58.5578 62.6564,-47.4738"/>
<polygon fill="#000000" stroke="#000000" points="66.0349,-48.4149 66.0246,-37.8201 59.4256,-46.1089 66.0349,-48.4149"/>
</g>
<!-- 18 -->
<g id="node9" class="node">
<title>18</title>
<ellipse fill="#ffffff" stroke="#000000" cx="156" cy="-20.6935" rx="20.8887" ry="20.8887"/>
<text text-anchor="middle" x="156" y="-16.4935" font-family="Times,serif" font-size="14.00" fill="#000000">18</text>
</g>
<!-- 17&#45;&gt;18 -->
<g id="edge8" class="edge">
<title>17-&gt;18</title>
<path fill="none" stroke="#ff0000" d="M156,-77.3421C156,-69.4483 156,-60.2736 156,-51.6361"/>
<polygon fill="#ff0000" stroke="#ff0000" points="159.5001,-51.4889 156,-41.489 152.5001,-51.489 159.5001,-51.4889"/>
</g>
</g>
</svg>