<?xml version="1.0" encoding="UTF-8" standalone="no"?><!DOCTYPE svg PUBLIC "-//W3C//DTD SVG 1.1//EN" "http://www.w3.org/Graphics/SVG/1.1/DTD/svg11.dtd"><!-- Generated by graphviz version 2.40.1 (20161225.0304)
 --><!-- Title: BST Pages: 1 --><svg xmlns="http://www.w3.org/2000/svg" xmlns:xlink="http://www.w3.org/1999/xlink" width="158pt" height="271pt" viewBox="0.00 0.00 157.69 270.77">
<g id="graph0" class="graph" transform="scale(1 1) rotate(0) translate(4 266.7738)">
<title>BST</title>
<polygon fill="#ffffff" stroke="transparent" points="-4,4 -4,-266.7738 153.6935,-266.7738 153.6935,4 -4,4"/>
<!-- 10 -->
<g id="node1" class="node">
<title>10</title>
<ellipse fill="#ffffff" stroke="#000000" cx="100" cy="-242.0804" rx="20.8887" ry="20.8887"/>
<text text-anchor="middle" x="100" y="-237.8804" font-family="Times,serif" font-size="14.00" fill="#000000">10</text>
</g>
<!-- 5 -->
<g id="node2" class="node">
<title>5</title>
<ellipse fill="#ffffff" stroke="#000000" cx="72" cy="-164.6935" rx="18" ry="18"/>
<text text-anchor="middle" x="72" y="-160.4935" font-family="Times,serif" font-size="14.00" fill="#000000">5</text>
</g>
<!-- 10&#45;&gt;5 -->
<g id="edge1" class="edge">
<title>10-&gt;5</title>
<path fill="none" stroke="#000000" d="M92.9344,-222.5524C89.5323,-213.1494 85.3992,-201.7264 81.7071,-191.5221"/>
<polygon fill="#000000" stroke="#000000" points="84.899,-190.0567 78.2054,-181.8441 78.3166,-192.4384 84.899,-190.0567"/>
</g>
<!-- 15 -->
<g id="node3" class="node">
<title>15</title>
<ellipse fill="#ffffff" stroke="#000000" cx="129" cy="-164.6935" rx="20.8887" ry="20.8887"/>
<text text-anchor="middle" x="129" y="-160.4935" font-family="Times,serif" font-size="14.00" fill="#000000">15</text>
</g>
<!-- 10&#45;&gt;15 -->
<g id="edge2" class="edge">
<title>10-&gt;15</title>
<path fill="none" stroke="#000000" d="M107.3179,-222.5524C110.5807,-213.8456 114.4926,-203.4067 118.0899,-193.8072"/>
<polygon fill="#000000" stroke="#000000" points="121.4527,-194.8075 121.6844,-184.2152 114.8978,-192.3511 121.4527,-194.8075"/>
</g>
<!-- 2 -->
<g id="node4" class="node">
<title>2</title>
<ellipse fill="#7fffd4" stroke="#000000" cx="45" cy="-90" rx="18" ry="18"/>
<text text-anchor="middle" x="45" y="-85.8" font-family="Times,serif" font-size="14.00" fill="#000000">2</text>
</g>
<!-- 5&#45;&gt;2 -->
<g id="edge3" class="edge">
<title>5-&gt;2</title>
<path fill="none" stroke="#ff0000" d="M65.8733,-147.7444C62.5483,-138.5461 58.3625,-126.9665 54.6138,-116.5959"/>
<polygon fill="#ff0000" stroke="#ff0000" points="57.887,-115.3552 51.1959,-107.1406 51.3039,-117.7349 57.887,-115.3552"/>
</g>
<!-- 7 -->
<g id="node5" class="node">
<title>7</title>
<ellipse fill="#ffffff" stroke="#000000" cx="99" cy="-90" rx="18" ry="18"/>
<text text-anchor="middle" x="99" y="-85.8" font-family="Times,serif" font-size="14.00" fill="#000000">7</text>
</g>
<!-- 5&#45;&gt;7 -->
<g id="edge4" class="edge">
<title>5-&gt;7</title>
<path fill="none" stroke="#000000" d="M78.1267,-147.7444C81.4517,-138.5461 85.6375,-126.9665 89.3862,-116.5959"/>
<polygon fill="#000000" stroke="#000000" points="92.6961,-117.7349 92.8041,-107.1406 86.113,-115.3552 92.6961,-117.7349"/>
</g>
<!-- 1 -->
<g id="node6" class="node">
<title>1</title>
<ellipse fill="#ffffff" stroke="#000000" cx="18" cy="-18" rx="18" ry="18"/>
<text text-anchor="middle" x="18" y="-13.8" font-family="Times,serif" font-size="14.00" fill="#000000">1</text>
</g>
<!-- 2&#45;&gt;1 -->
<g id="edge5" class="edge">
<title>2-&gt;1</title>
<path fill="none" stroke="#ff0000" d="M38.6014,-72.937C35.407,-64.4186 31.471,-53.9227 27.8982,-44.3952"/>
<polygon fill="#ff0000" stroke="#ff0000" points="31.1411,-43.0749 24.3527,-34.9405 24.5868,-45.5328 31.1411,-43.0749"/>
</g>
<!-- 4 -->
<g id="node7" class="node">
<title>4</title>
<ellipse fill="#ffffff" stroke="#000000" cx="72" cy="-18" rx="18" ry="18"/>
<text text-anchor="middle" x="72" y="-13.8" font-family="Times,serif" font-size="14.00" fill="#000000">4</text>
</g>
<!-- 2&#45;&gt;4 -->
<g id="edge6" class="edge">
<title>2-&gt;4</title>
<path fill="none" stroke="#000000" d="M51.3986,-72.937C54.593,-64.4186 58.529,-53.9227 62.1018,-44.3952"/>
<polygon fill="#000000" stroke="#000000" points="65.4132,-45.5328 65.6473,-34.9405 58.8589,-43.0749 65.4132,-45.5328"/>
</g>
</g>
</svg>