<?xml version="1.0" encoding="UTF-8" standalone="no"?>
<!DOCTYPE svg PUBLIC "-//W3C//DTD SVG 1.1//EN" "http://www.w3.org/Graphics/SVG/1.1/DTD/svg11.dtd">
<!-- Generated by graphviz version 2.40.1 (20161225.0304)
 -->
<!-- Title: BST Pages: 1 -->
<svg width="226pt" height="204pt" viewBox="0.00 0.00 226.39 204.16" xmlns="http://www.w3.org/2000/svg" xmlns:xlink="http://www.w3.org/1999/xlink">
<g id="graph0" class="graph" transform="scale(1 1) rotate(0) translate(4 200.1607)">
<title>BST</title>
<polygon fill="#ffffff" stroke="transparent" points="-4,4 -4,-200.1607 222.3869,-200.1607 222.3869,4 -4,4"/>
<!-- 50 -->
<g id="node1" class="node">
<title>50</title>
<ellipse fill="none" stroke="#000000" cx="108.6935" cy="-175.4673" rx="20.8887" ry="20.8887"/>
<text text-anchor="middle" x="108.6935" y="-171.2673" font-family="Times,serif" font-size="14.00" fill="#000000">50</text>
</g>
<!-- 30 -->
<g id="node2" class="node">
<title>30</title>
<ellipse fill="none" stroke="#000000" cx="79.6935" cy="-98.0804" rx="20.8887" ry="20.8887"/>
<text text-anchor="middle" x="79.6935" y="-93.8804" font-family="Times,serif" font-size="14.00" fill="#000000">30</text>
</g>
<!-- 50&#45;&gt;30 -->
<g id="edge1" class="edge">
<title>50-&gt;30</title>
<path fill="none" stroke="#ff0000" d="M101.3755,-155.9393C98.1127,-147.2325 94.2009,-136.7936 90.6035,-127.1941"/>
<polygon fill="#ff0000" stroke="#ff0000" points="93.7956,-125.738 87.009,-117.6021 87.2408,-128.1944 93.7956,-125.738"/>
</g>
<!-- 70 -->
<g id="node3" class="node">
<title>70</title>
<ellipse fill="none" stroke="#000000" cx="138.6935" cy="-98.0804" rx="20.8887" ry="20.8887"/>
<text text-anchor="middle" x="138.6935" y="-93.8804" font-family="Times,serif" font-size="14.00" fill="#000000">70</text>
</g>
<!-- 50&#45;&gt;70 -->
<g id="edge3" class="edge">
<title>50-&gt;70</title>
<path fill="none" stroke="#000000" d="M116.2637,-155.9393C119.639,-147.2325 123.6858,-136.7936 127.4072,-127.1941"/>
<polygon fill="#000000" stroke="#000000" points="130.7744,-128.1911 131.1256,-117.6021 124.2476,-125.6609 130.7744,-128.1911"/>
</g>
<!-- 20 -->
<g id="node4" class="node">
<title>20</title>
<ellipse fill="#ffff00" stroke="#000000" cx="20.6935" cy="-20.6935" rx="20.8887" ry="20.8887"/>
<text text-anchor="middle" x="20.6935" y="-16.4935" font-family="Times,serif" font-size="14.00" fill="#000000">20</text>
</g>
<!-- 30&#45;&gt;20 -->
<g id="edge2" class="edge">
<title>30-&gt;20</title>
<path fill="none" stroke="#ff0000" d="M66.8913,-81.2886C58.8734,-70.7719 48.4016,-57.0366 39.4555,-45.3025"/>
<polygon fill="#ff0000" stroke="#ff0000" points="42.1142,-43.017 33.2679,-37.1866 36.5475,-47.2611 42.1142,-43.017"/>
</g>
<!-- 40 -->
<g id="node5" class="node">
<title>40</title>
<ellipse fill="none" stroke="#000000" cx="79.6935" cy="-20.6935" rx="20.8887" ry="20.8887"/>
<text text-anchor="middle" x="79.6935" y="-16.4935" font-family="Times,serif" font-size="14.00" fill="#000000">40</text>
</g>
<!-- 30&#45;&gt;40 -->
<g id="edge4" class="edge">
<title>30-&gt;40</title>
<path fill="none" stroke="#000000" d="M79.6935,-77.3421C79.6935,-69.4483 79.6935,-60.2736 79.6935,-51.6361"/>
<polygon fill="#000000" stroke="#000000" points="83.1936,-51.4889 79.6935,-41.489 76.1936,-51.489 83.1936,-51.4889"/>
</g>
<!-- 60 -->
<g id="node6" class="node">
<title>60</title>
<ellipse fill="none" stroke="#000000" cx="138.6935" cy="-20.6935" rx="20.8887" ry="20.8887"/>
<text text-anchor="middle" x="138.6935" y="-16.4935" font-family="Times,serif" font-size="14.00" fill="#000000">60</text>
</g>
<!-- 70&#45;&gt;60 -->
<g id="edge5" class="edge">
<title>70-&gt;60</title>
<path fill="none" stroke="#000000" d="M138.6935,-77.3421C138.6935,-69.4483 138.6935,-60.2736 138.6935,-51.6361"/>
<polygon fill="#000000" stroke="#000000" points="142.1936,-51.4889 138.6935,-41.489 135.1936,-51.489 142.1936,-51.4889"/>
</g>
<!-- 80 -->
<g id="node7" class="node">
<title>80</title>
<ellipse fill="none" stroke="#000000" cx="197.6935" cy="-20.6935" rx="20.8887" ry="20.8887"/>
<text text-anchor="middle" x="197.6935" y="-16.4935" font-family="Times,serif" font-size="14.00" fill="#000000">80</text>
</g>
<!-- 70&#45;&gt;80 -->
<g id="edge6" class="edge">
<title>70-&gt;80</title>
<path fill="none" stroke="#000000" d="M151.4956,-81.2886C159.5135,-70.7719 169.9853,-57.0366 178.9314,-45.3025"/>
<polygon fill="#000000" stroke="#000000" points="181.8394,-47.2611 185.119,-37.1866 176.2727,-43.017 181.8394,-47.2611"/>
</g>
</g>
</svg>