<?xml version="1.0" encoding="UTF-8" standalone="no"?><!DOCTYPE svg PUBLIC "-//W3C//DTD SVG 1.1//EN" "http://www.w3.org/Graphics/SVG/1.1/DTD/svg11.dtd"><!-- Generated by graphviz version 2.40.1 (20161225.0304)
 --><!-- Title: BST Pages: 1 --><svg xmlns="http://www.w3.org/2000/svg" xmlns:xlink="http://www.w3.org/1999/xlink" width="163pt" height="359pt" viewBox="0.00 0.00 162.69 358.93">
<g id="graph0" class="graph" transform="scale(1 1) rotate(0) translate(4 354.9345)">
<title>BST</title>
<polygon fill="#ffffff" stroke="transparent" points="-4,4 -4,-354.9345 158.6935,-354.9345 158.6935,4 -4,4"/>
<!-- 10 -->
<g id="node1" class="node">
<title>10</title>
<ellipse fill="#ffffff" stroke="#000000" cx="46" cy="-330.2411" rx="20.8887" ry="20.8887"/>
<text text-anchor="middle" x="46" y="-326.0411" font-family="Times,serif" font-size="14.00" fill="#000000">10</text>
</g>
<!-- 5 -->
<g id="node2" class="node">
<title>5</title>
<ellipse fill="#ffffff" stroke="#000000" cx="18" cy="-252.8542" rx="18" ry="18"/>
<text text-anchor="middle" x="18" y="-248.6542" font-family="Times,serif" font-size="14.00" fill="#000000">5</text>
</g>
<!-- 10&#45;&gt;5 -->
<g id="edge1" class="edge">
<title>10-&gt;5</title>
<path fill="none" stroke="#000000" d="M38.9344,-310.7131C35.5323,-301.3102 31.3992,-289.8871 27.7071,-279.6828"/>
<polygon fill="#000000" stroke="#000000" points="30.899,-278.2174 24.2054,-270.0048 24.3166,-280.5991 30.899,-278.2174"/>
</g>
<!-- 15 -->
<g id="node3" class="node">
<title>15</title>
<ellipse fill="#ffffff" stroke="#000000" cx="75" cy="-252.8542" rx="20.8887" ry="20.8887"/>
<text text-anchor="middle" x="75" y="-248.6542" font-family="Times,serif" font-size="14.00" fill="#000000">15</text>
</g>
<!-- 10&#45;&gt;15 -->
<g id="edge2" class="edge">
<title>10-&gt;15</title>
<path fill="none" stroke="#ff0000" d="M53.3179,-310.7131C56.5807,-302.0063 60.4926,-291.5674 64.0899,-281.9679"/>
<polygon fill="#ff0000" stroke="#ff0000" points="67.4527,-282.9682 67.6844,-272.3759 60.8978,-280.5118 67.4527,-282.9682"/>
</g>
<!-- 12 -->
<g id="node4" class="node">
<title>12</title>
<ellipse fill="#ffffff" stroke="#000000" cx="46" cy="-175.4673" rx="20.8887" ry="20.8887"/>
<text text-anchor="middle" x="46" y="-171.2673" font-family="Times,serif" font-size="14.00" fill="#000000">12</text>
</g>
<!-- 15&#45;&gt;12 -->
<g id="edge3" class="edge">
<title>15-&gt;12</title>
<path fill="none" stroke="#000000" d="M67.6821,-233.3262C64.4193,-224.6194 60.5074,-214.1805 56.9101,-204.581"/>
<polygon fill="#000000" stroke="#000000" points="60.1022,-203.1249 53.3156,-194.989 53.5473,-205.5813 60.1022,-203.1249"/>
</g>
<!-- 20 -->
<g id="node5" class="node">
<title>20</title>
<ellipse fill="#7fffd4" stroke="#000000" cx="105" cy="-175.4673" rx="20.8887" ry="20.8887"/>
<text text-anchor="middle" x="105" y="-171.2673" font-family="Times,serif" font-size="14.00" fill="#000000">20</text>
</g>
<!-- 15&#45;&gt;20 -->
<g id="edge4" class="edge">
<title>15-&gt;20</title>
<path fill="none" stroke="#ff0000" d="M82.5703,-233.3262C85.9456,-224.6194 89.9923,-214.1805 93.7137,-204.581"/>
<polygon fill="#ff0000" stroke="#ff0000" points="97.0809,-205.578 97.4322,-194.989 90.5542,-203.0478 97.0809,-205.578"/>
</g>
<!-- 17 -->
<g id="node6" class="node">
<title>17</title>
<ellipse fill="#ffffff" stroke="#000000" cx="75" cy="-98.0804" rx="20.8887" ry="20.8887"/>
<text text-anchor="middle" x="75" y="-93.8804" font-family="Times,serif" font-size="14.00" fill="#000000">17</text>
</g>
<!-- 20&#45;&gt;17 -->
<g id="edge5" class="edge">
<title>20-&gt;17</title>
<path fill="none" stroke="#ff0000" d="M97.4297,-155.9393C94.0544,-147.2325 90.0077,-136.7936 86.2863,-127.1941"/>
<polygon fill="#ff0000" stroke="#ff0000" points="89.4458,-125.6609 82.5678,-117.6021 82.9191,-128.1911 89.4458,-125.6609"/>
</g>
<!-- 25 -->
<g id="node8" class="node">
<title>25</title>
<ellipse fill="#ffffff" stroke="#000000" cx="134" cy="-98.0804" rx="20.8887" ry="20.8887"/>
<text text-anchor="middle" x="134" y="-93.8804" font-family="Times,serif" font-size="14.00" fill="#000000">25</text>
</g>
<!-- 20&#45;&gt;25 -->
<g id="edge6" class="edge">
<title>20-&gt;25</title>
<path fill="none" stroke="#000000" d="M112.3179,-155.9393C115.5807,-147.2325 119.4926,-136.7936 123.0899,-127.1941"/>
<polygon fill="#000000" stroke="#000000" points="126.4527,-128.1944 126.6844,-117.6021 119.8978,-125.738 126.4527,-128.1944"/>
</g>
<!-- 18 -->
<g id="node7" class="node">
<title>18</title>
<ellipse fill="#ffffff" stroke="#000000" cx="75" cy="-20.6935" rx="20.8887" ry="20.8887"/>
<text text-anchor="middle" x="75" y="-16.4935" font-family="Times,serif" font-size="14.00" fill="#000000">18</text>
</g>
<!-- 17&#45;&gt;18 -->
<g id="edge7" class="edge">
<title>17-&gt;18</title>
<path fill="none" stroke="#ff0000" d="M75,-77.3421C75,-69.4483 75,-60.2736 75,-51.6361"/>
<polygon fill="#ff0000" stroke="#ff0000" points="78.5001,-51.4889 75,-41.489 71.5001,-51.489 78.5001,-51.4889"/>
</g>
</g>
</svg>