<?xml version="1.0" encoding="UTF-8" standalone="no"?><!DOCTYPE svg PUBLIC "-//W3C//DTD SVG 1.1//EN" "http://www.w3.org/Graphics/SVG/1.1/DTD/svg11.dtd"><!-- Generated by graphviz version 2.40.1 (20161225.0304)
 --><!-- Title: BST Pages: 1 --><svg xmlns="http://www.w3.org/2000/svg" xmlns:xlink="http://www.w3.org/1999/xlink" width="217pt" height="204pt" viewBox="0.00 0.00 216.69 204.16">
<g id="graph0" class="graph" transform="scale(1 1) rotate(0) translate(4 200.1607)">
<title>BST</title>
<polygon fill="#ffffff" stroke="transparent" points="-4,4 -4,-200.1607 212.6935,-200.1607 212.6935,4 -4,4"/>
<!-- 10 -->
<g id="node1" class="node">
<title>10</title>
<ellipse fill="#add8e6" stroke="#000000" cx="100" cy="-175.4673" rx="20.8887" ry="20.8887"/>
<text text-anchor="middle" x="100" y="-171.2673" font-family="Times,serif" font-size="14.00" fill="#000000">10</text>
</g>
<!-- 5 -->
<g id="node2" class="node">
<title>5</title>
<ellipse fill="none" stroke="#000000" cx="72" cy="-98.0804" rx="18" ry="18"/>
<text text-anchor="middle" x="72" y="-93.8804" font-family="Times,serif" font-size="14.00" fill="#000000">5</text>
</g>
<!-- 10&#45;&gt;5 -->
<g id="edge1" class="edge">
<title>10-&gt;5</title>
<path fill="none" stroke="#000000" d="M92.9344,-155.9393C88.3982,-143.402 82.5626,-127.2734 78.2054,-115.231"/>
</g>
<!-- 15 -->
<g id="node3" class="node">
<title>15</title>
<ellipse fill="none" stroke="#000000" cx="129" cy="-98.0804" rx="20.8887" ry="20.8887"/>
<text text-anchor="middle" x="129" y="-93.8804" font-family="Times,serif" font-size="14.00" fill="#000000">15</text>
</g>
<!-- 10&#45;&gt;15 -->
<g id="edge2" class="edge">
<title>10-&gt;15</title>
<path fill="none" stroke="#000000" d="M107.3179,-155.9393C111.7141,-144.208 117.2887,-129.3322 121.6844,-117.6021"/>
</g>
<!-- 3 -->
<g id="node4" class="node">
<title>3</title>
<ellipse fill="none" stroke="#000000" cx="18" cy="-20.6935" rx="18" ry="18"/>
<text text-anchor="middle" x="18" y="-16.4935" font-family="Times,serif" font-size="14.00" fill="#000000">3</text>
</g>
<!-- 5&#45;&gt;3 -->
<g id="edge3" class="edge">
<title>5-&gt;3</title>
<path fill="none" stroke="#000000" d="M61.5883,-83.1594C52.0261,-69.4559 37.9318,-49.2576 28.3798,-35.5686"/>
</g>
<!-- 7 -->
<g id="node5" class="node">
<title>7</title>
<ellipse fill="none" stroke="#000000" cx="72" cy="-20.6935" rx="18" ry="18"/>
<text text-anchor="middle" x="72" y="-16.4935" font-family="Times,serif" font-size="14.00" fill="#000000">7</text>
</g>
<!-- 5&#45;&gt;7 -->
<g id="edge4" class="edge">
<title>5-&gt;7</title>
<path fill="none" stroke="#000000" d="M72,-79.7407C72,-67.4046 72,-51.2099 72,-38.9014"/>
</g>
<!-- 12 -->
<g id="node6" class="node">
<title>12</title>
<ellipse fill="none" stroke="#000000" cx="129" cy="-20.6935" rx="20.8887" ry="20.8887"/>
<text text-anchor="middle" x="129" y="-16.4935" font-family="Times,serif" font-size="14.00" fill="#000000">12</text>
</g>
<!-- 15&#45;&gt;12 -->
<g id="edge5" class="edge">
<title>15-&gt;12</title>
<path fill="none" stroke="#000000" d="M129,-77.3421C129,-66.2388 129,-52.601 129,-41.489"/>
</g>
<!-- 18 -->
<g id="node7" class="node">
<title>18</title>
<ellipse fill="none" stroke="#000000" cx="188" cy="-20.6935" rx="20.8887" ry="20.8887"/>
<text text-anchor="middle" x="188" y="-16.4935" font-family="Times,serif" font-size="14.00" fill="#000000">18</text>
</g>
<!-- 15&#45;&gt;18 -->
<g id="edge6" class="edge">
<title>15-&gt;18</title>
<path fill="none" stroke="#000000" d="M141.8021,-81.2886C151.7662,-68.2193 165.5198,-50.1794 175.4256,-37.1866"/>
</g>
</g>
</svg>